General
ID                               : 0 (0x0)
Complete name                    : X-Men_The_Last_Stand_2006_Disc1_1080p_BD50.iso
Format                           : BDAV
Format/Info                      : Blu-ray Video
File size                        : 31.6 GiB (33,980,024,832 bytes)
Duration                         : 1 h 44 min 5 s
Overall bit rate mode            : Variable
Overall bit rate                 : 43.53 Mbps
Maximum Overall bit rate         : 48.0 Mbps

Video
ID                               : 4113 (0x1011)
Menu ID                          : 1 (0x1)
Format                           : AVC
Format/Info                      : Advanced Video Codec
Format profile                   : High@L4.1
Format settings                  : CABAC / 4 Ref Frames
Format settings, CABAC           : Yes
Format settings, Reference frames: 4 frames
Codec ID                         : 27
Duration                         : 1 h 44 min 5 s
Bit rate mode                    : Variable
Bit rate                         : 30,145 kbps
Width                            : 1 920 pixels
Height                           : 1 080 pixels
Display aspect ratio             : 16:9
Original display aspect ratio    : 2.40:1
Frame rate                       : 23.976 (24000/1001) FPS
Color space                      : YUV
Chroma subsampling               : 4:2:0
Bit depth                        : 8 bits
Scan type                        : Progressive
Bits/(Pixel*Frame)               : 0.607
Stream size                      : 21.9 GiB (69%)
Writing library                  : x264 core 50

Audio #1
ID                               : 4352 (0x1100)
Menu ID                          : 1 (0x1)
Format                           : DTS ES XXCh / Core
Format/Info                      : Digital Theater Systems / Core
Format profile                   : M-Ch / Core
Muxing mode                      : Stream extension
Codec ID                         : 134
Duration                         : 1 h 44 min 5 s
Bit rate mode                    : Constant
Bit rate                         : 4 738 kbps / 1 509 kbps
Channel(s)                       : 7 channels / 6 channels
Channel layout                   : C L R Ls Rs LFE Cs / C L R Ls Rs LFE
Sampling rate                    : 48.0 kHz
Bit depth                        : 24 bits
Compression mode                 : Lossless / Lossy
Stream size                      : 3.44 GiB (11%)
Title                            : DTS-HD Master Audio 6.1 (English)
Language                         : English

Audio #2
ID                               : 4353 (0x1101)
Menu ID                          : 1 (0x1)
Format                           : AC-3
Format/Info                      : Audio Coding 3
Format profile                   : Dolby Digital EX
Muxing mode                      : Dolby Demux
Codec ID                         : 129
Duration                         : 1 h 44 min 5 s
Bit rate mode                    : Constant
Bit rate                         : 448 kbps
Channel(s)                       : 6 channels
Channel layout                   : L C R Ls Rs LFE
Sampling rate                    : 48.0 kHz
Bit depth                        : 16 bits
Compression mode                 : Lossy
Stream size                      : 334 MiB (1%)
Title                            : Dolby Digital EX 5.1 (English)
Language                         : English

Audio #3
ID                               : 4354 (0x1102)
Menu ID                          : 1 (0x1)
Format                           : AC-3
Format/Info                      : Audio Coding 3
Codec ID                         : 129
Duration                         : 1 h 44 min 5 s
Bit rate mode                    : Constant
Bit rate                         : 448 kbps
Channel(s)                       : 6 channels
Channel layout                   : L C R Ls Rs LFE
Sampling rate                    : 48.0 kHz
Bit depth                        : 16 bits
Compression mode                 : Lossy
Stream size                      : 334 MiB (1%)
Title                            : Dolby Digital 5.1 (French)
Language                         : French

Audio #4
ID                               : 4355 (0x1103)
Menu ID                          : 1 (0x1)
Format                           : AC-3
Format/Info                      : Audio Coding 3
Codec ID                         : 129
Duration                         : 1 h 44 min 5 s
Bit rate mode                    : Constant
Bit rate                         : 448 kbps
Channel(s)                       : 6 channels
Channel layout                   : L C R Ls Rs LFE
Sampling rate                    : 48.0 kHz
Bit depth                        : 16 bits
Compression mode                 : Lossy
Stream size                      : 334 MiB (1%)
Title                            : Dolby Digital 5.1 (Spanish)
Language                         : Spanish

Audio #5
ID                               : 4356 (0x1104)
Menu ID                          : 1 (0x1)
Format                           : AC-3
Format/Info                      : Audio Coding 3
Codec ID                         : 129
Duration                         : 1 h 44 min 5 s
Bit rate mode                    : Constant
Bit rate                         : 448 kbps
Channel(s)                       : 6 channels
Channel layout                   : L C R Ls Rs LFE
Sampling rate                    : 48.0 kHz
Bit depth                        : 16 bits
Compression mode                 : Lossy
Stream size                      : 334 MiB (1%)
Title                            : Dolby Digital 5.1 (Portuguese)
Language                         : Portuguese

Audio #6
ID                               : 4357 (0x1105)
Menu ID                          : 1 (0x1)
Format                           : AC-3
Format/Info                      : Audio Coding 3
Codec ID                         : 129
Duration                         : 1 h 44 min 5 s
Bit rate mode                    : Constant
Bit rate                         : 224 kbps
Channel(s)                       : 2 channels
Channel layout                   : L R
Sampling rate                    : 48.0 kHz
Bit depth                        : 16 bits
Compression mode                 : Lossy
Stream size                      : 167 MiB (1%)
Title                            : Commentary by Director Brett Ratner & Writers Zak Penn and Simon Kinberg
Language                         : English

Audio #7
ID                               : 4358 (0x1106)
Menu ID                          : 1 (0x1)
Format                           : AC-3
Format/Info                      : Audio Coding 3
Codec ID                         : 129
Duration                         : 1 h 44 min 5 s
Bit rate mode                    : Constant
Bit rate                         : 224 kbps
Channel(s)                       : 2 channels
Channel layout                   : L R
Sampling rate                    : 48.0 kHz
Bit depth                        : 16 bits
Compression mode                 : Lossy
Stream size                      : 167 MiB (1%)
Title                            : Commentary by Producers Avi Arad, Lauren Shuler Donner and Ralph Winter
Language                         : English

Text #1
ID                               : 4608 (0x1200)
Menu ID                          : 1 (0x1)
Format                           : Presentation Graphic Stream (PGS)
Codec ID                         : 144
Duration                         : 1 h 44 min 5 s
Title                            : English SDH
Language                         : English

Text #2
ID                               : 4609 (0x1201)
Menu ID                          : 1 (0x1)
Format                           : Presentation Graphic Stream (PGS)
Codec ID                         : 144
Duration                         : 1 h 44 min 5 s
Title                            : French Subtitles
Language                         : French

Text #3
ID                               : 4610 (0x1202)
Menu ID                          : 1 (0x1)
Format                           : Presentation Graphic Stream (PGS)
Codec ID                         : 144
Duration                         : 1 h 44 min 5 s
Title                            : Spanish Subtitles
Language                         : Spanish

Text #4
ID                               : 4611 (0x1203)
Menu ID                          : 1 (0x1)
Format                           : Presentation Graphic Stream (PGS)
Codec ID                         : 144
Duration                         : 1 h 44 min 5 s
Title                            : Portuguese Subtitles
Language                         : Portuguese

Text #5
ID                               : 4612 (0x1204)
Menu ID                          : 1 (0x1)
Format                           : Presentation Graphic Stream (PGS)
Codec ID                         : 144
Duration                         : 1 h 44 min 5 s
Title                            : Cantonese Subtitles
Language                         : Chinese (Traditional)

Text #6
ID                               : 4613 (0x1205)
Menu ID                          : 1 (0x1)
Format                           : Presentation Graphic Stream (PGS)
Codec ID                         : 144
Duration                         : 1 h 44 min 5 s
Title                            : Korean Subtitles
Language                         : Korean

Text #7
ID                               : 4614 (0x1206)
Menu ID                          : 1 (0x1)
Format                           : Presentation Graphic Stream (PGS)
Codec ID                         : 144
Duration                         : 1 h 44 min 5 s
Title                            : Mandarin Subtitles
Language                         : Chinese (Traditional)

General
ID                               : 0 (0x0)
Complete name                    : X-Men_The_Last_Stand_2006_Disc2_1080p_BD25.iso
Format                           : BDAV
Format/Info                      : Blu-ray Video
File size                        : 4.16 GiB (4,466,737,152 bytes)
Duration                         : 1 h 7 min 30 s
Overall bit rate mode            : Variable
Overall bit rate                 : 8.82 Mbps
Maximum Overall bit rate         : 12.0 Mbps

Video
ID                               : 4113 (0x1011)
Menu ID                          : 1 (0x1)
Format                           : AVC
Format/Info                      : Advanced Video Codec
Format profile                   : Main@L3.0
Format settings                  : CABAC / 2 Ref Frames
Format settings, CABAC           : Yes
Format settings, Reference frames: 2 frames
Codec ID                         : 27
Duration                         : 1 h 7 min 30 s
Bit rate mode                    : Variable
Bit rate                         : 7.50 Mbps
Width                            : 720 pixels
Height                           : 480 pixels
Display aspect ratio             : 16:9
Frame rate                       : 29.970 (30000/1001) FPS
Standard                         : NTSC
Color space                      : YUV
Chroma subsampling               : 4:2:0
Bit depth                        : 8 bits
Scan type                        : Interlaced
Scan type, store method          : Separated fields
Scan order                       : Bottom Field First
Bits/(Pixel*Frame)               : 0.724
Stream size                      : 3.54 GiB (85%)

Audio
ID                               : 4352 (0x1100)
Menu ID                          : 1 (0x1)
Format                           : AC-3
Format/Info                      : Audio Coding 3
Codec ID                         : 129
Duration                         : 1 h 7 min 30 s
Bit rate mode                    : Constant
Bit rate                         : 224 kbps
Channel(s)                       : 2 channels
Channel layout                   : L R
Sampling rate                    : 48.0 kHz
Bit depth                        : 16 bits
Compression mode                 : Lossy
Stream size                      : 108 MiB (3%)
Title                            : Stereo (English)
Language                         : English

Text #1
ID                               : 4608 (0x1200)
Menu ID                          : 1 (0x1)
Format                           : Presentation Graphic Stream (PGS)
Codec ID                         : 144
Duration                         : 1 h 7 min 30 s
Title                            : English SDH
Language                         : English

Text #2
ID                               : 4609 (0x1201)
Menu ID                          : 1 (0x1)
Format                           : Presentation Graphic Stream (PGS)
Codec ID                         : 144
Duration                         : 1 h 7 min 30 s
Title                            : French Subtitles
Language                         : French

Text #3
ID                               : 4610 (0x1202)
Menu ID                          : 1 (0x1)
Format                           : Presentation Graphic Stream (PGS)
Codec ID                         : 144
Duration                         : 1 h 7 min 30 s
Title                            : Spanish Subtitles
Language                         : Spanish

Text #4
ID                               : 4611 (0x1203)
Menu ID                          : 1 (0x1)
Format                           : Presentation Graphic Stream (PGS)
Codec ID                         : 144
Duration                         : 1 h 7 min 30 s
Title                            : Portuguese Subtitles
Language                         : Portuguese

Text #5
ID                               : 4612 (0x1204)
Menu ID                          : 1 (0x1)
Format                           : Presentation Graphic Stream (PGS)
Codec ID                         : 144
Duration                         : 1 h 7 min 30 s
Title                            : Cantonese Subtitles
Language                         : Chinese (Traditional)

Text #6
ID                               : 4613 (0x1205)
Menu ID                          : 1 (0x1)
Format                           : Presentation Graphic Stream (PGS)
Codec ID                         : 144
Duration                         : 1 h 7 min 30 s
Title                            : Korean Subtitles
Language                         : Korean

Text #7
ID                               : 4614 (0x1206)
Menu ID                          : 1 (0x1)
Format                           : Presentation Graphic Stream (PGS)
Codec ID                         : 144
Duration                         : 1 h 7 min 30 s
Title                            : Mandarin Subtitles
Language                         : Chinese (Traditional)